<svg width="64" height="64" viewBox="0 0 64 64" fill="none" xmlns="http://www.w3.org/2000/svg">
<g clip-path="url(#clip0_719_2184)">
<rect width="64" height="64" rx="16" fill="#CFC6A7"/>
<g filter="url(#filter0_d_719_2184)">
<path d="M7.328 50V38.8H12.176C13.1787 38.8 14.0427 38.9653 14.768 39.296C15.4933 39.616 16.0533 40.08 16.448 40.688C16.8427 41.296 17.04 42.0213 17.04 42.864C17.04 43.696 16.8427 44.416 16.448 45.024C16.0533 45.632 15.4933 46.1013 14.768 46.432C14.0427 46.752 13.1787 46.912 12.176 46.912H8.768L9.92 45.744V50H7.328ZM9.92 46.032L8.768 44.8H12.032C12.832 44.8 13.4293 44.6293 13.824 44.288C14.2187 43.9467 14.416 43.472 14.416 42.864C14.416 42.2453 14.2187 41.7653 13.824 41.424C13.4293 41.0827 12.832 40.912 12.032 40.912H8.768L9.92 39.68V46.032ZM18.8905 50V38.8H21.4825V47.888H27.0985V50H18.8905ZM27.1372 50L32.1293 38.8H34.6893L39.6973 50H36.9773L32.8813 40.112H33.9053L29.7933 50H27.1372ZM29.6332 47.6L30.3213 45.632H36.0813L36.7853 47.6H29.6332ZM40.8593 50V38.8H43.0033L49.6113 46.864H48.5712V38.8H51.1313V50H49.0033L42.3793 41.936H43.4193V50H40.8593Z" fill="white"/>
</g>
<path d="M7.328 36V24.8H12.176C13.1787 24.8 14.0427 24.9653 14.768 25.296C15.4933 25.616 16.0533 26.08 16.448 26.688C16.8427 27.296 17.04 28.0213 17.04 28.864C17.04 29.696 16.8427 30.416 16.448 31.024C16.0533 31.632 15.4933 32.1013 14.768 32.432C14.0427 32.752 13.1787 32.912 12.176 32.912H8.768L9.92 31.744V36H7.328ZM9.92 32.032L8.768 30.8H12.032C12.832 30.8 13.4293 30.6293 13.824 30.288C14.2187 29.9467 14.416 29.472 14.416 28.864C14.416 28.2453 14.2187 27.7653 13.824 27.424C13.4293 27.0827 12.832 26.912 12.032 26.912H8.768L9.92 25.68V32.032ZM22.8868 36.192C21.9908 36.192 21.1321 36.0747 20.3108 35.84C19.4894 35.5947 18.8281 35.28 18.3267 34.896L19.2067 32.944C19.6867 33.2853 20.2521 33.568 20.9028 33.792C21.5641 34.0053 22.2308 34.112 22.9028 34.112C23.4148 34.112 23.8254 34.064 24.1348 33.968C24.4548 33.8613 24.6894 33.7173 24.8388 33.536C24.9881 33.3547 25.0628 33.1467 25.0628 32.912C25.0628 32.6133 24.9454 32.3787 24.7108 32.208C24.4761 32.0267 24.1668 31.8827 23.7828 31.776C23.3987 31.6587 22.9721 31.552 22.5027 31.456C22.0441 31.3493 21.5801 31.2213 21.1107 31.072C20.6521 30.9227 20.2307 30.7307 19.8467 30.496C19.4627 30.2613 19.1481 29.952 18.9027 29.568C18.6681 29.184 18.5507 28.6933 18.5507 28.096C18.5507 27.456 18.7214 26.8747 19.0627 26.352C19.4147 25.8187 19.9374 25.3973 20.6307 25.088C21.3347 24.768 22.2147 24.608 23.2708 24.608C23.9748 24.608 24.6681 24.6933 25.3507 24.864C26.0334 25.024 26.6361 25.2693 27.1588 25.6L26.3588 27.568C25.8361 27.2693 25.3134 27.0507 24.7908 26.912C24.2681 26.7627 23.7561 26.688 23.2548 26.688C22.7534 26.688 22.3427 26.7467 22.0227 26.864C21.7028 26.9813 21.4734 27.136 21.3347 27.328C21.1961 27.5093 21.1267 27.7227 21.1267 27.968C21.1267 28.256 21.2441 28.4907 21.4787 28.672C21.7134 28.8427 22.0228 28.9813 22.4068 29.088C22.7908 29.1947 23.2121 29.3013 23.6708 29.408C24.1401 29.5147 24.6041 29.6373 25.0628 29.776C25.5321 29.9147 25.9588 30.1013 26.3428 30.336C26.7268 30.5707 27.0361 30.88 27.2708 31.264C27.5161 31.648 27.6388 32.1333 27.6388 32.72C27.6388 33.3493 27.4628 33.9253 27.1108 34.448C26.7588 34.9707 26.2308 35.392 25.5268 35.712C24.8334 36.032 23.9534 36.192 22.8868 36.192ZM32.1195 36V31.424L32.7115 32.992L27.7835 24.8H30.5355L34.3115 31.088H32.7275L36.5195 24.8H39.0635L34.1355 32.992L34.7115 31.424V36H32.1195Z" fill="#3E3232"/>
</g>
<defs>
<filter id="filter0_d_719_2184" x="7.32812" y="38.7969" width="46.8047" height="11.2031" filterUnits="userSpaceOnUse" color-interpolation-filters="sRGB">
<feFlood flood-opacity="0" result="BackgroundImageFix"/>
<feColorMatrix in="SourceAlpha" type="matrix" values="0 0 0 0 0 0 0 0 0 0 0 0 0 0 0 0 0 0 127 0" result="hardAlpha"/>
<feOffset dx="3"/>
<feComposite in2="hardAlpha" operator="out"/>
<feColorMatrix type="matrix" values="0 0 0 0 0.629167 0 0 0 0 0.609328 0 0 0 0 0.482361 0 0 0 0.5 0"/>
<feBlend mode="normal" in2="BackgroundImageFix" result="effect1_dropShadow_719_2184"/>
<feBlend mode="normal" in="SourceGraphic" in2="effect1_dropShadow_719_2184" result="shape"/>
</filter>
<clipPath id="clip0_719_2184">
<rect width="64" height="64" rx="16" fill="white"/>
</clipPath>
</defs>
</svg>
